<!DOCTYPE svg PUBLIC "-//W3C//DTD SVG 1.1//EN" "http://www.w3.org/Graphics/SVG/1.1/DTD/svg11.dtd">
<!-- Uploaded to: SVG Repo, www.svgrepo.com, Transformed by: SVG Repo Mixer Tools -->
<svg fill="#000000" width="800px" height="800px" viewBox="0 0 24 24" id="agenda-book" data-name="Flat Line" xmlns="http://www.w3.org/2000/svg" class="icon flat-line">
<g id="SVGRepo_bgCarrier" stroke-width="0"/>
<g id="SVGRepo_tracerCarrier" stroke-linecap="round" stroke-linejoin="round"/>
<g id="SVGRepo_iconCarrier">
<path id="secondary" d="M18,3H4A1,1,0,0,0,3,4V20a1,1,0,0,0,1,1H18a1,1,0,0,0,1-1V4A1,1,0,0,0,18,3Zm-3,8H7V7h8Z" style="fill: #4448ab; stroke-width: 2;"/>
<path id="primary" d="M21,9H19V7h2Zm0,4H19v2h2ZM15,7H7v4h8Zm4,13V4a1,1,0,0,0-1-1H4A1,1,0,0,0,3,4V20a1,1,0,0,0,1,1H18A1,1,0,0,0,19,20Z" style="fill: none; stroke: #14c0cc; stroke-linecap: round; stroke-linejoin: round; stroke-width: 2;"/>
</g>
</svg>